<?xml version="1.0" encoding="UTF-8"?>
<svg id="Layer_1" xmlns="http://www.w3.org/2000/svg" version="1.1" viewBox="0 0 800 800">
  <!-- Generator: Adobe Illustrator 29.1.0, SVG Export Plug-In . SVG Version: 2.1.0 Build 142)  -->
  <defs>
    <style>
      .st0 {
        fill: #7e8d85;
        fill-rule: evenodd;
      }
    </style>
  </defs>
  <path class="st0" d="M0,0h800v800H0V0ZM533.3,320c-58.9,0-106.7,47.8-106.7,106.7s47.8,106.7,106.7,106.7h53.3c29.5,0,53.3,23.9,53.3,53.3s-23.9,53.3-53.3,53.3h-53.3c-29.5,0-53.3-23.9-53.3-53.3h-53.3c0,58.9,47.8,106.7,106.7,106.7h53.3c58.9,0,106.7-47.8,106.7-106.7s-47.8-106.7-106.7-106.7h-53.3c-29.5,0-53.3-23.9-53.3-53.3s23.9-53.3,53.3-53.3h62.2c24.5,0,44.4,19.9,44.4,44.4v8.9h53.3v-8.9c0-54-43.8-97.8-97.8-97.8h-62.2ZM160,320h266.7v53.3h-106.7v320h-53.3v-320h-106.7v-53.3h0Z"/>
</svg>