<?xml version="1.0" encoding="UTF-8"?>
<svg id="Layer_1" xmlns="http://www.w3.org/2000/svg" version="1.1" viewBox="0 0 512 512">
  <!-- Generator: Adobe Illustrator 29.1.0, SVG Export Plug-In . SVG Version: 2.1.0 Build 142)  -->
  <defs>
    <style>
      .st0 {
        fill: #3c493f;
      }
    </style>
  </defs>
  <path class="st0" d="M256,8C119.3,8,8,119.2,8,256s111.3,248,248,248,248-111.3,248-248S392.7,8,256,8ZM33,256c0-32.3,6.9-63,19.3-90.7l106.4,291.4c-74.4-36.2-125.7-112.5-125.7-200.7ZM256,479c-21.9,0-43-3.2-63-9.1l66.9-194.4,68.5,187.8c.5,1.1,1,2.1,1.6,3.1-23.1,8.1-48,12.6-74,12.6ZM286.7,151.5c13.4-.7,25.5-2.1,25.5-2.1,12-1.4,10.6-19.1-1.4-18.4,0,0-36.1,2.8-59.4,2.8s-58.7-2.8-58.7-2.8c-12-.7-13.4,17.7-1.4,18.4,0,0,11.4,1.4,23.4,2.1l34.7,95.2-48.8,146.3-81.2-241.5c13.4-.7,25.5-2.1,25.5-2.1,12-1.4,10.6-19.1-1.4-18.4,0,0-36.1,2.8-59.4,2.8s-9.1-.1-14.4-.3c39.9-60.5,108.4-100.5,186.3-100.5s110.9,22.2,150.6,58.5c-1,0-1.9-.2-2.9-.2-21.9,0-37.4,19.1-37.4,39.6s10.6,33.9,21.9,52.3c8.5,14.8,18.4,33.9,18.4,61.5s-7.3,41.2-17,72.1l-22.2,74.3-80.7-239.6h0ZM368.1,448.7l68.1-196.9c12.7-31.8,17-57.2,17-79.9s-.5-15.8-1.5-22.9c17.4,31.8,27.3,68.2,27.3,107,0,82.3-44.6,154.1-110.9,192.7Z"/>
</svg>